# AST/ASF file generated using VICON BodyLanguage
# -----------------------------------------------
:version 1.10
:name VICON
:units
  mass 1.0
  length 0.45
  angle deg
:documentation
   .ast/.asf automatically generated from VICON data using
   VICON BodyBuilder and BodyLanguage model FoxedUp or BRILLIANT.MOD
:root
   order TX TY TZ RX RY RZ
   axis XYZ
   position 0 0 0  
   orientation 0 0 0 
:bonedata
  begin
     id 1 
     name lhipjoint
     direction 0.570549 -0.739093 0.358072 
     length 2.41801 
     axis 0 0 0  XYZ
  end
  begin
     id 2 
     name lfemur
     direction 0.34202 -0.939693 0  
     length 7.44434  
     axis 0 0 20  XYZ
    dof rx ry rz
    limits (-160.0 20.0)
           (-70.0 70.0)
           (-60.0 70.0)
  end
  begin
     id 3 
     name ltibia
     direction 0.34202 -0.939693 0   
     length 7.60047   
     axis 0 0 20   XYZ
    dof rx
    limits (-10.0 170.0)
  end
  begin
     id 4 
     name lfoot
     direction 0.0909041 -0.249757 0.964032   
     length 2.03437   
     axis -90 7.62852e-016 20   XYZ
    dof rx rz
    limits (-45.0 90.0)
           (-70.0 20.0)
  end
  begin
     id 5 
     name ltoes
     direction 1.53547e-011 -4.2174e-011 1   
     length 1.02054   
     axis -90 7.62852e-016 20   XYZ
    dof rx
    limits (-90.0 20.0)
  end
  begin
     id 6 
     name rhipjoint
     direction -0.558096 -0.746754 0.361784   
     length 2.3932  
     axis 0 0 0  XYZ 
  end
  begin
     id 7 
     name rfemur
     direction -0.34202 -0.939693 0   
     length 7.3886   
     axis 0 0 -20   XYZ
    dof rx ry rz
    limits (-160.0 20.0)
           (-70.0 70.0)
           (-70.0 60.0)
  end
  begin
     id 8 
     name rtibia
     direction -0.34202 -0.939693 0   
     length 7.4839   
     axis 0 0 -20   XYZ
    dof rx
    limits (-10.0 170.0)
 end
 begin
     id 9 
     name rfoot
     direction -0.114619 -0.314914 0.942174   
     length 2.25127  
     axis -90 -7.62852e-016 -20   XYZ
    dof rx rz
    limits (-45.0 90.0)
           (-20.0 70.0)
  end
  begin
     id 10 
     name rtoes
     direction -1.53518e-011 -4.21881e-011 1   
     length 1.11821   
     axis -90 -7.62852e-016 -20   XYZ
    dof rx
    limits (-90.0 20.0)
  end
  begin
     id 11 
     name lowerback
     direction -0.00902269 0.996426 -0.0839821   
     length 2.25052   
     axis 0 0 0   XYZ
    dof rx ry rz
    limits (-20.0 45.0)
           (-30.0 30.0)
           (-30.0 30.0)
  end
  begin
     id 12 
     name upperback
     direction 0.0370973 0.999169 -0.0168941   
     length 2.24876   
     axis 0 0 0   XYZ
    dof rx ry rz
    limits (-20.0 45.0)
           (-30.0 30.0)
           (-30.0 30.0)
  end
  begin
     id 13 
     name thorax
     direction 0.0402726 0.998931 0.0227027   
     length 2.26408   
     axis 0 0 0   XYZ
    dof rx ry rz
    limits (-20.0 45.0)
           (-30.0 30.0)
           (-30.0 30.0)
  end
  begin
     id 14 
     name lowerneck
     direction -0.0733697 0.98508 0.155675   
     length 1.58204   
     axis 0 0 0   XYZ
    dof rx ry rz
    limits (-20.0 45.0)
           (-30.0 30.0)
           (-30.0 30.0)
  end
  begin
     id 15 
     name upperneck
     direction 0.0426554 0.993501 -0.105526   
     length 1.61222   
     axis 0 0 0   XYZ
    dof rx ry rz
    limits (-20.0 45.0)
           (-30.0 30.0)
           (-30.0 30.0)
  end
  begin
     id 16
     name head
     direction 0.020792 0.998384 -0.0528868  
     length 1.61527  
     axis 0 0 0   XYZ
    dof rx ry rz
    limits (-20.0 45.0)
           (-30.0 30.0)
           (-30.0 30.0)
  end
  begin
     id 17 
     name lclavicle
     direction 0.967109 0.155462 -0.201325  
     length 3.59357  
     axis 0 0 0   XYZ
    dof ry rz
    limits (-20.0 10.0)
           (0.0 20.0)
  end
  begin
     id 18 
     name lhumerus
     direction 1 -4.48968e-011 2.38195e-027   
     length 5.38154   
     axis 180 -30 -90   XYZ
    dof rx ry rz
    limits (-60.0 90.0)
           (-90.0 90.0)
           (-90.0 90.0)
  end
  begin
     id 19
     name lradius
     direction 1 -4.48961e-011 4.85371e-027   
     length 3.33312   
     axis 180 -30 -90   XYZ
    dof rx
    limits (-10.0 170.0)
  end
  begin
     id 20
     name lwrist
     direction 1 -4.48961e-011 4.76515e-027   
     length 1.66656   
     axis -3.27502e-015 90 90   XYZ
    dof ry
    limits (-180.0 0.0)
 end
  begin
     id 21 
     name lhand
     direction 1 -4.48951e-011 9.53074e-027   
     length 0.710789   
     axis -6.08098e-015 90 90   XYZ
    dof rx rz
    limits (-90.0 90.0)
           (-45.0 45.0)
  end
  begin
     id 22 
     name lfingers
     direction 1 -4.48953e-011 1.90613e-026   
     length 0.573057   
     axis -1.21619e-014 90 90   XYZ
    dof rx
    limits (0.0 90.0)
  end
  begin
     id 23
     name lthumb
     direction 0.707107 -6.34973e-011 0.707107   
     length 0.822798   
     axis -90 45 -9.86923e-015   XYZ
    dof rx rz
    limits (-45.0 45.0)
           (-45.0 45.0)
  end
  begin
     id 24 
     name rclavicle
     direction -0.9585 0.265289 -0.104398   
     length 3.42039  
     axis 0 0 0   XYZ 
    dof ry rz
    limits (-10.0 20.0)
           (-20.0 0.0)
  end
  begin
     id 25 
     name rhumerus
     direction -1 -4.48977e-011 2.21478e-027  
     length 5.16954   
     axis 180 30 90   XYZ
    dof rx ry rz
    limits (-90.0 60.0)
           (-90.0 90.0)
           (-90.0 90.0)
  end
  begin
     id 26 
     name rradius
     direction -1 -4.48967e-011 5.63677e-027   
     length 3.38287   
     axis 180 30 90   XYZ
    dof rx
    limits (-10.0 170.0)
  end
  begin
     id 27 
     name rwrist
     direction -1 -4.48967e-011 4.76501e-027   
     length 1.69144   
     axis -3.27502e-015 -90 -90   XYZ
    dof ry
    limits (-180.0 0.0)
  end
  begin
     id 28
     name rhand
     direction -1 -4.48902e-011 9.53292e-027   
     length 0.817967   
     axis -6.08098e-015 -90 -90   XYZ
    dof rx rz
    limits (-90.0 90.0)
           (-45.0 45.0)
  end
  begin
     id 29
     name rfingers
     direction -1 -4.49012e-011 1.90561e-026   
     length 0.659466   
     axis -1.21619e-014 -90 -90   XYZ
    dof rx
    limits (0.0 90.0)
  end
  begin
     id 30
     name rthumb
     direction -0.707107 -6.34944e-011 0.707107   
     length 0.946865   
     axis -90 -45 9.86923e-015   XYZ
    dof rx rz
    limits (-45.0 45.0)
           (-45.0 45.0)
  end
:hierarchy
  begin
    root lhipjoint rhipjoint lowerback
    lhipjoint lfemur
    lfemur ltibia
    ltibia lfoot
    lfoot ltoes
    rhipjoint rfemur
    rfemur rtibia
    rtibia rfoot
    rfoot rtoes
    lowerback upperback
    upperback thorax
    thorax lowerneck lclavicle rclavicle
    lowerneck upperneck
    upperneck head
    lclavicle lhumerus
    lhumerus lradius
    lradius lwrist
    lwrist lhand lthumb
    lhand lfingers
    rclavicle rhumerus
    rhumerus rradius
    rradius rwrist
    rwrist rhand rthumb
    rhand rfingers
  end

#!OML:ASF F:\twosubjects\two\wednesday\Session 1\Justin1.ASF
:FULLY-SPECIFIED
:DEGREES
292
root 7.42608 16.9202 3.78745 -177.313 -54.9449 -530.886
lowerback 17.6187 4.49141 -12.0326
upperback 2.00498 3.01585 -2.56286
thorax -8.22327 1.64646 3.26642
lowerneck -6.78102 -17.8322 -19.3604
upperneck -0.614782 -24.8193 28.039
head 7.24533 -11.9986 8.81361
rclavicle -4.37326e-014 6.52014e-014
rhumerus 31.4914 -64.03 -58.9052
rradius 29.078
rwrist -55.1989
rhand 14.8009 -26.7613
rfingers 7.12502
rthumb 39.6642 -52.0878
lclavicle -4.37326e-014 6.52014e-014
lhumerus -16.0867 24.6266 14.7488
lradius 25.9224
lwrist -5.74447
lhand -6.21196 24.546
lfingers 7.12502
lthumb 19.6286 53.5751
rfemur -57.2257 -30.0661 48.5337
rtibia 56.0203
rfoot -3.46836 18.7446
rtoes -12.8914
lfemur -6.78097 6.28698 -14.0396
ltibia 45.907
lfoot -23.0785 -4.4842
ltoes -36.1331
293
root 7.15687 16.9878 3.75306 -176.726 -54.0444 -530.889
lowerback 16.9736 4.37921 -12.2178
upperback 2.02167 2.93311 -2.62207
thorax -7.84338 1.59596 3.35729
lowerneck -6.26199 -17.808 -19.8779
upperneck -0.802452 -24.9088 28.7142
head 7.31362 -12.0919 9.12418
rclavicle 1.66979e-014 1.90833e-014
rhumerus 30.1301 -64.0298 -58.1506
rradius 29.5394
rwrist -55.8537
rhand 16.2181 -27.6622
rfingers 7.12502
rthumb 40.997 -52.5795
lclavicle 1.66979e-014 1.90833e-014
lhumerus -15.6502 24.1173 14.733
lradius 26.1228
lwrist -5.17767
lhand -5.68894 24.4881
lfingers 7.12502
lthumb 20.1314 53.4651
rfemur -57.4372 -31.5833 51.5189
rtibia 52.7232
rfoot -0.390408 21.2348
rtoes -11.8402
lfemur -6.49836 6.54592 -14.1944
ltibia 45.7664
lfoot -20.3167 -6.47694
ltoes -35.4512
294
root 6.88329 17.0365 3.72448 -175.723 -53.4511 -531.009
lowerback 15.9279 4.01428 -12.2887
upperback 2.05279 2.61487 -2.69972
thorax -7.18221 1.41874 3.43965
lowerneck -6.06836 -17.6774 -20.3386
upperneck -0.73484 -24.8527 29.315
head 7.46305 -12.081 9.41795
rclavicle 6.20208e-014 2.70347e-014
rhumerus 31.5967 -64.7372 -59.916
rradius 29.2595
rwrist -55.0623
rhand 18.4948 -28.1713
rfingers 7.12502
rthumb 43.1303 -52.371
lclavicle 6.20208e-014 2.70347e-014
lhumerus -15.4155 24.0208 14.6548
lradius 26.2504
lwrist -5.25073
lhand -5.56875 24.6949
lfingers 7.12502
lthumb 20.2469 53.6597
rfemur -57.8295 -32.755 54.2363
rtibia 49.5183
rfoot 1.65627 22.631
rtoes -11.6802
lfemur -6.88709 6.35843 -14.4639
ltibia 45.9554
lfoot -17.2756 -8.31807
ltoes -34.2355
295
root 6.63019 17.0717 3.67267 -175.349 -51.7188 -531.031
lowerback 14.9642 4.29025 -12.937
upperback 2.37848 3.03152 -2.70729
thorax -6.39132 1.57575 3.74608
lowerneck -6.11025 -17.8078 -20.177
upperneck -0.803962 -25.0546 29.4209
head 7.49662 -12.1847 9.37137
rclavicle 6.91771e-014 7.95139e-015
rhumerus 35.5157 -66.4717 -63.8793
rradius 28.58
rwrist -52.9663
rhand 21.3945 -29.0338
rfingers 7.12502
rthumb 45.8319 -52.1981
lclavicle 6.91771e-014 7.95139e-015
lhumerus -14.7123 24.0166 14.8615
lradius 26.2788
lwrist -5.44109
lhand -5.70596 24.9004
lfingers 7.12502
lthumb 20.115 53.8791
rfemur -56.2333 -32.3902 55.2949
rtibia 46.5294
rfoot 3.42382 21.9829
rtoes -9.79171
lfemur -6.53868 7.1262 -14.476
ltibia 46.2616
lfoot -13.9592 -9.83819
ltoes -31.6918
296
root 6.35678 17.1092 3.64997 -174.508 -50.6397 -531.073
lowerback 14.7756 4.10764 -12.4337
upperback 1.83334 2.83849 -3.14577
thorax -6.80624 1.51221 3.02867
lowerneck -5.89387 -17.9022 -19.8235
upperneck -0.15642 -25.3325 29.0007
head 7.59945 -12.3047 9.13246
rclavicle 2.8625e-014 6.83819e-014
rhumerus 34.1618 -66.8448 -63.2683
rradius 28.4748
rwrist -52.3224
rhand 23.4033 -30.4815
rfingers 7.12502
rthumb 47.6913 -52.8371
lclavicle 2.8625e-014 6.83819e-014
lhumerus -14.4135 22.6959 14.3832
lradius 26.4008
lwrist -5.61198
lhand -5.83251 25.0137
lfingers 7.12502
lthumb 19.9934 54.0051
rfemur -55.3032 -32.0093 56.1432
rtibia 43.9142
rfoot 4.6683 20.1008
rtoes -7.04274
lfemur -7.02177 6.85017 -14.7502
ltibia 46.695
lfoot -10.0051 -11.2459
ltoes -27.9237
297
root 6.08136 17.1354 3.60142 -173.667 -49.6498 -531.606
lowerback 14.4357 3.99322 -12.6654
upperback 1.6817 2.67245 -3.3494
thorax -6.76158 1.43672 2.98317
lowerneck -5.86971 -17.9214 -19.9263
upperneck 0.276432 -25.4221 28.83
head 7.73344 -12.3278 9.07009
rclavicle -8.98507e-014 -5.88403e-014
rhumerus 33.5987 -67.1197 -62.9504
rradius 28.4639
rwrist -51.4691
rhand 24.8018 -32.4616
rfingers 7.12502
rthumb 48.9792 -54.2043
lclavicle -8.98507e-014 -5.88403e-014
lhumerus -14.212 22.3969 14.1759
lradius 26.2973
lwrist -6.54051
lhand -6.05913 24.9929
lfingers 7.12502
lthumb 19.7755 54.0069
rfemur -53.7459 -31.5941 55.9228
rtibia 41.8027
rfoot 3.84472 17.9715
rtoes -7.07605
lfemur -7.00312 6.36836 -15.1468
ltibia 46.9739
lfoot -5.23846 -13.3676
ltoes -21.2579
298
root 5.80757 17.1368 3.54358 -172.667 -48.451 -532.406
lowerback 13.7585 3.95536 -13.1744
upperback 1.66566 2.62081 -3.6022
thorax -6.409 1.39722 3.03073
lowerneck -5.69253 -17.9057 -20.1316
upperneck 0.505075 -25.4782 28.8913
head 7.828 -12.3591 9.1201
rclavicle 5.88403e-014 2.22639e-014
rhumerus 34.557 -68.0065 -64.0314
rradius 28.2541
rwrist -49.9304
rhand 26.7531 -34.6509
rfingers 7.12502
rthumb 50.7656 -55.4621
lclavicle 5.88403e-014 2.22639e-014
lhumerus -13.8563 22.3197 13.9993
lradius 26.0506
lwrist -7.45639
lhand -5.94969 24.7283
lfingers 7.12502
lthumb 19.8807 53.7315
rfemur -51.6916 -30.4062 54.675
rtibia 40.2717
rfoot 1.3866 16.5006
rtoes -3.96267
lfemur -6.95866 6.18195 -15.6234
ltibia 47.2134
lfoot -0.175592 -15.3907
ltoes -14.2504
299
root 5.53031 17.1409 3.46884 -172.323 -48.6707 -532.855
lowerback 13.7629 3.44944 -12.9828
upperback 1.70626 1.96071 -3.82524
thorax -6.25243 1.05645 2.82727
lowerneck -5.10558 -17.835 -20.073
upperneck 0.569429 -25.4596 28.7316
head 7.70326 -12.398 9.11837
rclavicle -3.18055e-015 -6.52014e-014
rhumerus 31.5752 -67.4518 -61.3905
rradius 28.4303
rwrist -51.0531
rhand 23.8653 -40.6326
rfingers 7.12502
rthumb 48.1174 -62.7905
lclavicle -3.18055e-015 -6.52014e-014
lhumerus -13.6128 21.6795 13.594
lradius 25.9496
lwrist -7.75202
lhand -5.7147 24.4382
lfingers 7.12502
lthumb 20.1066 53.4178
rfemur -49.6325 -29.9387 53.2729
rtibia 39.3076
rfoot -2.23393 16.5664
rtoes -0.918725
lfemur -6.74045 4.79574 -15.4641
ltibia 47.4351
lfoot 4.72758 -17.384
ltoes -9.2191
300
root 5.26091 17.1383 3.40121 -171.957 -48.2492 -533.206
lowerback 13.7175 3.09497 -12.9126
upperback 1.6582 1.49018 -3.98175
thorax -6.20529 0.821682 2.71775
lowerneck -4.63538 -17.624 -20.3898
upperneck 0.631855 -25.2549 28.8647
head 7.65984 -12.3387 9.30428
rclavicle 2.3059e-014 8.11041e-014
rhumerus 26.7005 -65.3115 -56.6507
rradius 29.01
rwrist -54.1361
rhand 23.1991 -43.6333
rfingers 7.12502
rthumb 47.5028 -66.0748
lclavicle 2.3059e-014 8.11041e-014
lhumerus -13.7182 20.9139 13.132
lradius 25.9442
lwrist -7.71884
lhand -5.63278 24.4706
lfingers 7.12502
lthumb 20.1853 53.4419
rfemur -47.4492 -28.4179 51.423
rtibia 38.7071
rfoot -5.84314 17.5265
rtoes 2.40488
lfemur -6.74883 3.69937 -15.398
ltibia 47.9075
lfoot 9.19896 -18.9904
ltoes -4.44882
